<?xml version="1.0" encoding="UTF-8"?>
<svg width="1200px" height="620px" viewBox="0 0 1200 620" version="1.1" xmlns="http://www.w3.org/2000/svg" xmlns:xlink="http://www.w3.org/1999/xlink">
    <!-- Generator: Sketch 52.4 (67378) - http://www.bohemiancoding.com/sketch -->
    <title>Boilerplate - v2</title>
    <desc>Created with Sketch.</desc>
    <defs>
        <path d="M214.698573,73 C220.030728,31.8149278 255.237798,0 297.875,0 C340.512202,0 375.719272,31.8149278 381.051427,73 L596,73 L596,459 L0,459 L0,73 L214.698573,73 Z" id="path-1"></path>
        <filter x="-10.1%" y="-13.1%" width="120.1%" height="126.1%" filterUnits="objectBoundingBox" id="filter-2">
            <feOffset dx="0" dy="0" in="SourceAlpha" result="shadowOffsetOuter1"></feOffset>
            <feGaussianBlur stdDeviation="20" in="shadowOffsetOuter1" result="shadowBlurOuter1"></feGaussianBlur>
            <feColorMatrix values="0 0 0 0 0   0 0 0 0 0   0 0 0 0 0  0 0 0 0.05 0" type="matrix" in="shadowBlurOuter1"></feColorMatrix>
        </filter>
    </defs>
    <g id="Boilerplate---v2" stroke="none" stroke-width="1" fill="none" fill-rule="evenodd">
        <rect fill="#F4F3F0" x="0" y="0" width="1200" height="620"></rect>
        <g id="Eightshift-logo-1200px-Copy-2" fill="#F4F3F0" fill-rule="nonzero">
            <rect id="Rectangle" x="0" y="0" width="1200" height="620"></rect>
        </g>
        <g id="Group" transform="translate(302.000000, 63.000000)">
            <g id="Combined-Shape" fill-rule="nonzero">
                <use fill="black" fill-opacity="1" filter="url(#filter-2)" xlink:href="#path-1"></use>
                <use fill="#FFFFFF" xlink:href="#path-1"></use>
            </g>
            <path d="M562,107 L562,105 L564,107 L562,107 Z M562,107 L379.24226,107 L379.1875,105 L564,105 L564,427 L388.003906,427 L388.003906,425 L562,425 L562,107 Z M562,425 L564,425 L562,427 L562,425 Z M562,425 L564,425 L562,427 L562,425 Z M562,425 L562,107 L379.24226,107 L379.1875,105 L564,105 L564,427 L388.003906,427 L388.003906,425 L562,425 Z M562,107 L562,105 L564,107 L562,107 Z M34,425 L34,427 L32,425 L34,425 Z M34,425 L34,107 L217.568832,107 L217.613281,105 L32,105 L32,427 L210.457031,427 L210.457031,425 L34,425 Z M34,107 L32,107 L34,105 L34,107 Z M34,107 L32,107 L34,105 L34,107 Z M34,107 L217.568832,107 L217.613281,105 L32,105 L32,427 L210.457031,427 L210.457031,425 L34,425 L34,107 Z M34,425 L34,427 L32,425 L34,425 Z" id="Shape" fill="#F4F3F0" fill-rule="nonzero"></path>
            <g id="Group-3" transform="translate(244.000000, 29.000000)">
                <g id="Group-24">
                    <path d="M104.25935,54.529825 C104.25935,82.074825 81.92935,104.404825 54.38435,104.404825 C26.83935,104.404825 4.50935,82.074825 4.50935,54.529825 C4.50935,26.984825 26.83935,4.654825 54.38435,4.654825 C81.92935,4.654825 104.25935,26.984825 104.25935,54.529825" id="Fill-2" fill="#FFFFFF"></path>
                    <path d="M54.38435,5.529825 C27.3661,5.529825 5.38435,27.511575 5.38435,54.529825 C5.38435,81.548075 27.3661,103.529825 54.38435,103.529825 C81.4026,103.529825 103.38435,81.548075 103.38435,54.529825 C103.38435,27.511575 81.4026,5.529825 54.38435,5.529825 M54.38435,105.279825 C26.4001,105.279825 3.63435,82.514075 3.63435,54.529825 C3.63435,26.545575 26.4001,3.779825 54.38435,3.779825 C82.3686,3.779825 105.13435,26.545575 105.13435,54.529825 C105.13435,82.514075 82.3686,105.279825 54.38435,105.279825" id="Fill-4" fill="#0C3636"></path>
                    <path d="M82.868925,21.27475 C82.181175,21.27475 81.542425,21.364 80.998175,21.52325 C78.765175,22.169 77.071175,23.5095 76.225925,25.29625 C75.461175,26.915 75.452425,28.7735 76.203175,30.527 C76.710675,31.70825 77.387925,33.08725 78.170175,34.68325 C81.033175,40.516 84.963675,48.52575 85.443175,56.85225 C89.455925,43.911 91.415925,35.8785 91.415925,32.40475 C91.415925,27.98425 90.129675,24.682 87.695425,22.85325 C86.193925,21.7245 84.410675,21.27475 82.868925,21.27475 M84.335425,66.11325 L82.671175,65.57425 C86.129175,54.8765 80.394425,43.1865 76.598675,35.45325 C75.805925,33.83625 75.119925,32.438 74.594925,31.21475 C73.644675,28.99575 73.660425,26.628 74.643925,24.549 C75.706175,22.302 77.790425,20.629 80.509925,19.8415 C82.538175,19.25525 85.913925,19.3235 88.745425,21.45325 C90.763175,22.96875 93.165925,26.0995 93.165925,32.40475 C93.165925,36.78675 90.276675,47.8135 84.335425,66.11325" id="Fill-6" fill="#0C3636"></path>
                    <path d="M45.7754,37.029825 L64.6264,103.487825 L69.95165,102.716075 L72.3439,89.668075 L56.4364,37.029825 L45.7754,37.029825 Z M63.36115,105.439075 L43.46015,35.279825 L57.7349,35.279825 L74.14115,89.566575 L71.44615,104.266575 L63.36115,105.439075 Z" id="Fill-8" fill="#0C3636"></path>
                    <path d="M31.158525,99.451275 L38.190025,101.574025 L41.733775,91.088025 L23.267775,37.030525 L12.598025,37.030525 L31.158525,99.451275 Z M39.306525,103.738775 L29.749775,100.854775 L10.251275,35.280525 L24.519025,35.280525 L43.581775,91.084525 L39.306525,103.738775 Z" id="Fill-10" fill="#0C3636"></path>
                    <path d="M76.761775,96.133275 C85.854775,69.729275 95.245275,41.130775 95.847275,31.896025 C99.534525,38.621275 101.634525,46.333525 101.634525,54.530525 C101.634525,72.492525 91.558025,88.142775 76.761775,96.133275 Z M44.533775,100.739275 C46.528775,95.071025 49.516025,86.447025 52.331775,78.080275 L59.475275,101.500525 C57.802275,101.680775 56.104775,101.780525 54.384525,101.780525 C51.007025,101.780525 47.711775,101.416525 44.533775,100.739275 Z M7.134525,54.530525 C7.134525,50.026025 7.782025,45.672025 8.963275,41.542025 L23.931025,90.615525 C13.667275,81.940775 7.134525,68.987275 7.134525,54.530525 Z M23.425275,38.780525 L39.898025,92.790775 C39.122775,95.018525 38.415775,97.041525 37.805025,98.770525 C36.193275,98.163275 34.625275,97.466775 33.102775,96.695025 L15.440025,38.780525 L23.425275,38.780525 Z M47.666275,38.780525 L55.651525,38.780525 L71.361275,90.297025 C70.325275,93.326275 69.235025,96.488525 68.109775,99.740025 C67.544525,99.911525 66.977525,100.074275 66.405275,100.224775 L47.666275,38.780525 Z M54.384525,7.280525 C64.198525,7.280525 73.323025,10.290525 80.884775,15.432025 C80.438525,15.502025 80.011525,15.587775 79.630025,15.699775 C76.126525,16.714775 73.421025,18.912775 72.012275,21.891275 C70.684025,24.698275 70.652525,27.876275 71.923025,30.837275 C72.621275,32.468275 73.611775,34.321525 74.660025,36.283275 C78.447025,43.372525 83.634025,53.079775 80.610025,62.435275 L80.617025,62.437025 C79.042025,67.375525 77.234275,72.886275 75.211275,78.923775 L61.038025,32.442025 L61.038025,31.780525 L35.134525,31.780525 L35.134525,38.780525 L40.346025,38.780525 L48.800275,66.500525 C47.274275,71.178275 45.512025,76.426525 43.777775,81.517275 L28.626275,31.838275 L28.547525,31.861025 L28.547525,31.780525 L12.988275,31.780525 C21.038275,17.189025 36.574775,7.280525 54.384525,7.280525 Z M82.755525,22.276275 C83.761775,22.276275 85.037525,22.545775 86.122525,23.361275 C88.401025,25.072775 88.880525,28.473025 88.880525,31.024525 C88.880525,33.142025 87.954775,37.546775 86.117275,44.207275 C84.563275,39.963525 82.522775,36.145025 80.834025,32.986275 C79.817275,31.080525 78.937025,29.435525 78.357775,28.079275 C77.881775,26.971525 77.874775,25.865525 78.340275,24.885525 C78.877525,23.746275 80.029025,22.871275 81.577775,22.421525 C81.882275,22.334025 82.290025,22.276275 82.755525,22.276275 Z M54.384525,0.280525 C24.471775,0.280525 0.134525,24.616025 0.134525,54.530525 C0.134525,84.443275 24.471775,108.780525 54.384525,108.780525 C84.297275,108.780525 108.634525,84.443275 108.634525,54.530525 C108.634525,24.616025 84.297275,0.280525 54.384525,0.280525 Z" id="Fill-18" fill="#0C3636"></path>
                </g>
            </g>
            <path d="M207.180011,209.199993 L193.804009,254 L182.988007,254 L173.388006,221.999995 L163.788004,254 L152.972002,254 L139.596,209.199993 L148.876002,209.199993 L158.508003,243.567998 L168.524005,209.199993 L178.412007,209.199993 L188.428008,243.567998 L198.06001,209.199993 L207.180011,209.199993 Z M221.948003,222.159995 C231.612005,222.159995 238.748006,229.135996 238.748006,238.479997 C238.748006,247.823999 231.612005,254.8 221.948003,254.8 C212.316002,254.8 205.212,247.823999 205.212,238.479997 C205.212,229.135996 212.316002,222.159995 221.948003,222.159995 Z M221.948003,229.935996 C217.244002,229.935996 213.724002,233.455997 213.724002,238.479997 C213.724002,243.503998 217.244002,247.023999 221.948003,247.023999 C226.652004,247.023999 230.204005,243.503998 230.204005,238.479997 C230.204005,233.455997 226.652004,229.935996 221.948003,229.935996 Z M260.396003,222.159995 C262.188004,222.159995 263.596004,222.415995 264.748004,222.831995 L263.500004,231.119996 C262.124004,230.511996 260.140003,230.127996 258.444003,230.127996 C254.572003,230.127996 251.916002,232.495996 251.916002,237.103997 L251.916002,254 L243.564001,254 L243.564001,222.991995 L251.660002,222.991995 L251.660002,226.383995 C253.612002,223.471995 256.588003,222.159995 260.396003,222.159995 Z M280.476003,222.159995 C284.636004,222.159995 287.580004,223.791995 289.596004,226.223995 L289.596004,207.919992 L297.916006,207.919992 L297.916006,254 L289.756004,254 L289.756004,250.575999 C287.740004,253.072 284.732004,254.8 280.476003,254.8 C271.932001,254.8 265.468,247.791999 265.468,238.479997 C265.468,229.167996 271.932001,222.159995 280.476003,222.159995 Z M282.012003,229.935996 C277.116002,229.935996 274.012002,233.743997 274.012002,238.479997 C274.012002,243.215998 277.116002,247.023999 282.012003,247.023999 C286.780004,247.023999 290.012004,243.375998 290.012004,238.479997 C290.012004,233.583997 286.780004,229.935996 282.012003,229.935996 Z M323.724004,237.615997 L314.316002,237.615997 L314.316002,254 L305.388001,254 L305.388001,209.199993 L323.660004,209.199993 C334.348006,209.199993 340.044007,214.767994 340.044007,223.439995 C340.044007,232.047996 334.348006,237.615997 323.724004,237.615997 Z M323.500004,217.423994 L314.316002,217.423994 L314.316002,229.455996 L323.500004,229.455996 C328.364005,229.455996 330.892005,227.471996 330.892005,223.439995 C330.892005,219.439994 328.364005,217.423994 323.500004,217.423994 Z M361.788003,222.159995 C363.580004,222.159995 364.988004,222.415995 366.140004,222.831995 L364.892004,231.119996 C363.516004,230.511996 361.532003,230.127996 359.836003,230.127996 C355.964003,230.127996 353.308002,232.495996 353.308002,237.103997 L353.308002,254 L344.956001,254 L344.956001,222.991995 L353.052002,222.991995 L353.052002,226.383995 C355.004002,223.471995 357.980003,222.159995 361.788003,222.159995 Z M382.540003,222.159995 C391.468004,222.159995 397.580005,228.783996 397.612005,238.447997 C397.612005,239.407998 397.548005,240.559998 397.452005,241.263998 L375.468002,241.263998 C376.364002,245.743999 379.500002,247.695999 383.436003,247.695999 C386.124004,247.695999 389.036004,246.607999 391.276004,244.719998 L396.172005,250.095999 C392.652005,253.328 388.172004,254.8 382.956003,254.8 C373.452001,254.8 366.86,248.335999 366.86,238.575997 C366.86,228.815996 373.260001,222.159995 382.540003,222.159995 Z M382.476003,229.359996 C378.540002,229.359996 376.236002,231.727996 375.500002,235.567997 L389.228004,235.567997 C388.460004,231.599996 386.060004,229.359996 382.476003,229.359996 Z M427.260005,225.135995 L424.444004,231.631996 C421.980004,230.415996 418.044003,229.135996 414.556003,229.103996 C411.388002,229.103996 409.788002,230.223996 409.788002,231.919996 C409.788002,233.711997 412.028002,234.159997 414.844003,234.575997 L417.596003,234.991997 C424.316004,236.015997 428.060005,239.023998 428.060005,244.271998 C428.060005,250.671999 422.812004,254.8 413.820003,254.8 C409.596002,254.8 404.060001,254 400.028,251.152 L403.324001,244.815998 C405.980001,246.575999 409.212002,247.855999 413.884003,247.855999 C417.756003,247.855999 419.612004,246.767999 419.612004,244.943999 C419.612004,243.439998 418.044003,242.607998 414.460003,242.095998 L411.932002,241.743998 C404.764001,240.751998 401.212001,237.615997 401.212001,232.335996 C401.212001,225.967995 406.140001,222.191995 414.300003,222.191995 C419.260004,222.191995 423.132004,223.119995 427.260005,225.135995 Z M457.484005,225.135995 L454.668004,231.631996 C452.204004,230.415996 448.268003,229.135996 444.780003,229.103996 C441.612002,229.103996 440.012002,230.223996 440.012002,231.919996 C440.012002,233.711997 442.252002,234.159997 445.068003,234.575997 L447.820003,234.991997 C454.540004,236.015997 458.284005,239.023998 458.284005,244.271998 C458.284005,250.671999 453.036004,254.8 444.044003,254.8 C439.820002,254.8 434.284001,254 430.252,251.152 L433.548001,244.815998 C436.204001,246.575999 439.436002,247.855999 444.108003,247.855999 C447.980003,247.855999 449.836004,246.767999 449.836004,244.943999 C449.836004,243.439998 448.268003,242.607998 444.684003,242.095998 L442.156002,241.743998 C434.988001,240.751998 431.436001,237.615997 431.436001,232.335996 C431.436001,225.967995 436.364001,222.191995 444.524003,222.191995 C449.484004,222.191995 453.356004,223.119995 457.484005,225.135995 Z M144.396001,275.199993 L162.700004,275.199993 C173.132006,275.199993 179.692007,279.071993 179.692007,287.615995 C179.692007,292.127995 176.940006,295.743996 173.196006,297.119996 C177.292006,298.495996 180.652007,302.335997 180.652007,307.167998 C180.652007,315.775999 174.540006,320 163.788004,320 L144.396001,320 L144.396001,275.199993 Z M163.340004,301.375997 L153.324002,301.375997 L153.324002,312.127999 L163.340004,312.159999 C168.268005,312.159999 171.372005,311.007999 171.372005,306.719998 C171.372005,302.527997 168.268005,301.375997 163.340004,301.375997 Z M162.444004,283.071994 L153.324002,283.071994 L153.324002,293.535996 L162.476004,293.535996 C166.924005,293.535996 170.380005,292.607996 170.380005,288.255995 C170.380005,284.031994 166.860005,283.071994 162.444004,283.071994 Z M200.892003,288.159995 C210.556005,288.159995 217.692006,295.135996 217.692006,304.479997 C217.692006,313.823999 210.556005,320.8 200.892003,320.8 C191.260002,320.8 184.156,313.823999 184.156,304.479997 C184.156,295.135996 191.260002,288.159995 200.892003,288.159995 Z M200.892003,295.935996 C196.188002,295.935996 192.668002,299.455997 192.668002,304.479997 C192.668002,309.503998 196.188002,313.023999 200.892003,313.023999 C205.596004,313.023999 209.148005,309.503998 209.148005,304.479997 C209.148005,299.455997 205.596004,295.935996 200.892003,295.935996 Z M230.860002,288.991995 L230.860002,320 L222.508001,320 L222.508001,288.991995 L230.860002,288.991995 Z M226.636001,273.471992 C229.644002,273.471992 231.980002,275.839993 231.980002,278.847993 C231.980002,281.855994 229.644002,284.159994 226.636001,284.159994 C223.628001,284.159994 221.324001,281.855994 221.324001,278.847993 C221.324001,275.839993 223.628001,273.471992 226.636001,273.471992 Z M245.980002,273.919992 L245.980002,320 L237.628001,320 L237.628001,273.919992 L245.980002,273.919992 Z M266.508003,288.159995 C275.436004,288.159995 281.548005,294.783996 281.580005,304.447997 C281.580005,305.407998 281.516005,306.559998 281.420005,307.263998 L259.436002,307.263998 C260.332002,311.743999 263.468002,313.695999 267.404003,313.695999 C270.092004,313.695999 273.004004,312.607999 275.244004,310.719998 L280.140005,316.095999 C276.620005,319.328 272.140004,320.8 266.924003,320.8 C257.420001,320.8 250.828,314.335999 250.828,304.575997 C250.828,294.815996 257.228001,288.159995 266.508003,288.159995 Z M266.444003,295.359996 C262.508002,295.359996 260.204002,297.727996 259.468002,301.567997 L273.196004,301.567997 C272.428004,297.599996 270.028004,295.359996 266.444003,295.359996 Z M303.228003,288.159995 C305.020004,288.159995 306.428004,288.415995 307.580004,288.831995 L306.332004,297.119996 C304.956004,296.511996 302.972003,296.127996 301.276003,296.127996 C297.404003,296.127996 294.748002,298.495996 294.748002,303.103997 L294.748002,320 L286.396001,320 L286.396001,288.991995 L294.492002,288.991995 L294.492002,292.383995 C296.444002,289.471995 299.420003,288.159995 303.228003,288.159995 Z M328.684004,288.159995 C337.260005,288.159995 343.724006,295.167996 343.724006,304.479997 C343.724006,313.791999 337.260005,320.8 328.716004,320.8 C324.556003,320.8 321.612002,319.168 319.596002,316.767999 L319.596002,332.800002 L311.276001,332.800002 L311.276001,288.991995 L319.436002,288.991995 L319.436002,292.415995 C321.452002,289.887995 324.428003,288.159995 328.684004,288.159995 Z M327.148003,295.935996 C322.412003,295.935996 319.180002,299.583997 319.180002,304.479997 C319.180002,309.375998 322.412003,313.023999 327.148003,313.023999 C332.076004,313.023999 335.148005,309.215998 335.148005,304.479997 C335.148005,299.743997 332.076004,295.935996 327.148003,295.935996 Z M356.892002,273.919992 L356.892002,320 L348.540001,320 L348.540001,273.919992 L356.892002,273.919992 Z M394.188006,288.991995 L394.188006,320 L386.028004,320 L386.028004,316.575999 C384.012004,319.072 381.004004,320.8 376.748003,320.8 C368.204001,320.8 361.74,313.791999 361.74,304.479997 C361.74,295.167996 368.204001,288.159995 376.748003,288.159995 C381.004004,288.159995 383.980004,289.887995 386.028004,292.415995 L386.028004,288.991995 L394.188006,288.991995 Z M378.284003,295.935996 C373.388002,295.935996 370.284002,299.743997 370.284002,304.479997 C370.284002,309.215998 373.388002,313.023999 378.284003,313.023999 C383.052004,313.023999 386.284004,309.375998 386.284004,304.479997 C386.284004,299.583997 383.052004,295.935996 378.284003,295.935996 Z M423.452004,288.991995 L423.452004,296.415996 L412.220003,296.415996 L412.220003,307.743998 C412.220003,311.615999 414.268003,313.023999 416.860003,313.023999 C418.844004,313.023999 420.988004,312.031999 422.684004,311.007999 L425.756005,317.536 C423.036004,319.392 419.900004,320.8 415.484003,320.8 C407.804002,320.8 403.868001,316.447999 403.868001,308.415998 L403.868001,296.415996 L397.884,296.415996 L397.884,288.991995 L403.868001,288.991995 L403.868001,279.775993 L412.220003,279.775993 L412.220003,288.991995 L423.452004,288.991995 Z M442.188003,288.159995 C451.116004,288.159995 457.228005,294.783996 457.260005,304.447997 C457.260005,305.407998 457.196005,306.559998 457.100005,307.263998 L435.116002,307.263998 C436.012002,311.743999 439.148002,313.695999 443.084003,313.695999 C445.772004,313.695999 448.684004,312.607999 450.924004,310.719998 L455.820005,316.095999 C452.300005,319.328 447.820004,320.8 442.604003,320.8 C433.100001,320.8 426.508,314.335999 426.508,304.575997 C426.508,294.815996 432.908001,288.159995 442.188003,288.159995 Z M442.124003,295.359996 C438.188002,295.359996 435.884002,297.727996 435.148002,301.567997 L448.876004,301.567997 C448.108004,297.599996 445.708004,295.359996 442.124003,295.359996 Z" id="WordPress-Boilerplat-Copy" fill="#0C3636"></path>
        </g>
        <g id="Logo-/-Eightshift-logo-green" transform="translate(540.000000, 468.000000)" fill="#0C3636">
            <g id="logo" transform="translate(0.000000, 1.705882)">
                <path d="M9.87829185,11.8887846 C9.73872103,9.91261381 9.07357082,8.2525076 7.45975107,8.2525076 C6.15520172,8.2525076 5.15734764,9.79549602 5.00902146,11.8887846 L9.87829185,11.8887846 Z M7.38481545,21.095572 C1.96653219,21.095572 -7.72532189e-05,16.8829118 -7.72532189e-05,14.0513721 C-7.72532189e-05,12.6063228 0.246360515,11.5522628 0.665330472,10.7073781 C1.50043777,9.02297895 3.05039485,7.79810084 4.46438627,7.26160934 C5.47640343,6.8777801 6.78584549,6.727675 7.57305579,6.727675 C10.950309,6.727675 13.9188927,8.87849959 14.466618,12.0677856 L13.0036996,13.3946942 L4.95777682,13.3946942 C4.97245494,16.6571149 6.29580258,18.4992907 8.86112446,18.4992907 C10.3500515,18.4992907 11.7746009,17.8697187 12.6859313,16.574263 L12.7822403,16.4374551 L13.9132275,16.956558 C13.4190644,18.276818 11.0855021,21.095572 7.38481545,21.095572 Z" id="Fill-1"></path>
                <polygon id="Fill-4" points="16.223176 20.910127 16.223176 18.0340927 16.223176 10.8781451 20.8599142 6.64860771 20.8599142 20.910127"></polygon>
                <path d="M47.6145064,18.3552716 L47.6145064,10.701957 C47.6145064,9.75248465 47.2277253,8.84750685 46.0972532,8.84750685 C45.3612876,8.84750685 44.7612876,9.09273819 44.2630043,9.59700951 C43.763691,10.1033266 43.5211159,10.7308528 43.5211159,11.5156443 L43.5211159,20.9860745 L40.043176,20.9860745 L38.8841202,20.9845402 L38.8841202,6.24841267 L43.5211159,2.04572545 L43.5211159,8.73703768 C44.4782833,7.55946697 45.9569099,6.96364943 47.9291845,6.96364943 C49.7600858,6.96364943 52.2512446,8.17753177 52.2512446,11.5161557 L52.2512446,18.3552716 L52.2512446,20.9845402 L47.6145064,20.9853074 L47.6145064,18.3552716 Z" id="Fill-6"></path>
                <path d="M87.0136481,18.3552716 L87.0136481,10.701957 C87.0136481,9.75248465 86.626867,8.84750685 85.4963948,8.84750685 C84.7604292,8.84750685 84.1604292,9.09273819 83.6621459,9.59700951 C83.1628326,10.1033266 82.9202575,10.7308528 82.9202575,11.5156443 L82.9202575,20.9860745 L79.4423176,20.9860745 L78.2832618,20.9845402 L78.2832618,6.24841267 L82.9202575,2.04572545 L82.9202575,8.73703768 C83.8774249,7.55946697 85.3560515,6.96364943 87.3283262,6.96364943 C89.1592275,6.96364943 91.6503863,8.17753177 91.6503863,11.5161557 L91.6503863,18.3552716 L91.6503863,20.9845402 L87.0136481,20.9853074 L87.0136481,18.3552716 Z" id="Fill-8"></path>
                <path d="M59.2398283,20.9975817 C56.952618,20.9975817 55.6042918,19.6231099 55.6042918,17.9023991 L55.6042918,8.33965551 L53.304721,8.33965551 L60.2412876,2.04572545 L60.2412876,6.80817429 L63.6190558,6.80817429 L63.6190558,8.33965551 L60.2412876,8.33965551 L60.2412876,17.8596946 C60.2412876,18.7654395 61.0836052,19.2768709 62.2284979,18.0013611 L63.1006867,18.711995 C62.1028326,20.4380758 60.7725322,20.9975817 59.2398283,20.9975817" id="Fill-10"></path>
                <path d="M29.4489013,7.94155734 C28.013279,7.94155734 27.5487296,8.90586117 27.5487296,9.63286085 C27.5487296,11.0134698 28.1616052,11.7026236 30.9391159,14.0851266 C32.0873562,12.9185516 32.0873562,11.5059782 32.0873562,10.8879134 C32.0873562,9.96503552 31.2303605,7.94155734 29.4489013,7.94155734 M28.3516481,17.8313613 C27.2780858,18.8711013 26.573794,19.9231156 26.573794,21.5412844 C26.573794,24.1475386 28.4057253,25.3197393 29.706412,25.3197393 C31.6271845,25.3197393 32.4782575,23.7320006 32.4782575,22.7119508 C32.4782575,20.7485658 30.4951674,19.5019518 28.3516481,17.8313613 M29.5560258,26.8501977 C28.2710472,26.8501977 27.0700172,26.6704295 25.986412,26.3162633 C24.8855536,25.9567271 23.9927639,25.4064269 23.3327639,24.6807058 C22.6593734,23.9404089 22.3176567,23.0456598 22.3176567,22.0217742 C22.3176567,21.5622531 22.3840944,21.123445 22.5161974,20.7068841 L26.8815193,16.7090252 C25.7981717,15.8572362 25.013279,15.0964821 24.3898455,14.3226864 C23.6731931,13.4338187 23.3098455,12.4130017 23.3098455,11.2883642 C23.3098455,10.3013016 23.6250386,9.44363125 24.2471845,8.73887883 C24.8559399,8.04895792 25.6725064,7.52499649 26.6742232,7.18182605 C27.6599742,6.84453706 28.7610901,6.67371899 29.946927,6.67371899 C31.7119056,6.67371899 33.1851245,7.03299952 34.3256395,7.74133196 C35.5050386,8.47523596 36.1029785,9.46178706 36.1029785,10.6741351 C36.1029785,11.6151688 35.7280429,12.4636334 34.9882146,13.1962589 C34.3464979,13.8322238 33.4168841,14.4551472 32.2204893,15.0499418 C33.2981717,15.8738578 34.1325064,16.5389743 34.7041803,17.0304598 C35.3510472,17.5874085 35.9289013,18.2530365 36.4215193,19.008932 C36.9283004,19.7875863 37.1850386,20.6396309 37.1850386,21.5412844 C37.1850386,22.5779558 36.846412,23.5143866 36.1784292,24.3242382 C35.5204893,25.1220711 34.5986009,25.7503645 33.4382575,26.1917298 C32.2913047,26.6287479 30.9849528,26.8501977 29.5560258,26.8501977" id="Fill-12"></path>
                <path d="M18.803691,5.38102508 C17.3806867,5.38102508 16.223176,4.23132738 16.223176,2.81849824 C16.223176,1.40541338 17.3806867,0.255715681 18.803691,0.255715681 C20.2266953,0.255715681 21.384206,1.40541338 21.384206,2.81849824 C21.384206,4.23132738 20.2266953,5.38102508 18.803691,5.38102508" id="Fill-15"></path>
                <polygon id="Fill-17" points="94.5064378 20.9346708 94.5064378 18.0586366 94.5064378 10.9026889 99.143176 6.67315157 99.143176 20.9346708"></polygon>
                <path d="M97.0869528,5.38102508 C95.6639485,5.38102508 94.5064378,4.23132738 94.5064378,2.81849824 C94.5064378,1.40541338 95.6639485,0.255715681 97.0869528,0.255715681 C98.5099571,0.255715681 99.6674678,1.40541338 99.6674678,2.81849824 C99.6674678,4.23132738 98.5099571,5.38102508 97.0869528,5.38102508" id="Fill-19"></path>
                <path d="M72.0687554,6.89972051 C72.7578541,7.06772571 73.4183691,7.45027637 73.9967382,7.61802586 L75.1866953,6.81891435 L75.0576824,11.335109 L73.9305579,11.335109 C73.5146781,8.83267534 71.243176,7.7458837 70.153133,7.7458837 C69.107382,7.7458837 68.5923605,8.27342515 68.5923605,9.0863453 C68.5923605,11.6775123 76.3658369,12.9560907 76.3658369,17.1605679 C76.3658369,17.9376879 76.0913305,18.6260745 75.5420601,19.2259835 C74.9927897,19.8261482 74.2545064,20.2851578 73.3287554,20.6027567 C72.4024893,20.9206113 71.3788841,21.0796665 70.259485,21.0796665 C66.8296996,21.0796665 64.1201717,20.3984399 64.1201717,20.3984399 L64.4116738,16.1098322 L65.5243777,16.1686468 C66.1297854,18.9868893 67.6890129,19.8445597 69.2899571,19.8445597 C70.6303004,19.8445597 71.473133,19.0293381 71.473133,18.0790987 C71.473133,15.555952 64.2494421,14.4584203 64.2494421,10.5582448 C64.2494421,9.42874859 64.7876395,8.28135233 65.8650644,7.62825448 C66.9419742,6.97515663 68.255794,6.64860771 69.8070386,6.64860771 C70.6254077,6.64860771 71.3788841,6.73222674 72.0687554,6.89972051" id="Fill-21"></path>
                <path d="M115.456738,21.2159678 C113.169528,21.2159678 111.821202,19.841496 111.821202,18.1207852 L111.821202,8.55804155 L109.521631,8.55804155 L116.458197,2.26411149 L116.458197,7.02656033 L119.835966,7.02656033 L119.835966,8.55804155 L116.458197,8.55804155 L116.458197,18.0780806 C116.458197,18.9838256 117.300515,19.4952569 118.445408,18.2197471 L119.317597,18.930381 C118.319742,20.6564619 116.989442,21.2159678 115.456738,21.2159678" id="Fill-23"></path>
                <path d="M107.723124,7.05996415 L107.723124,3.23778187 C107.849562,2.47805058 108.64218,2.14587591 109.690764,3.31424086 L110.562953,2.60335126 C109.565099,0.877270415 108.234798,0.317764504 106.702094,0.317764504 C104.414884,0.317764504 103.066558,2.07811125 103.066558,3.92437847 L103.066558,6.5585057 L100.786558,8.59118965 L103.066558,8.59118965 L103.066558,12.9097161 L103.086386,12.9363105 L103.086386,20.9875187 L107.723124,20.9875187 L107.723124,8.59118965 L111.615914,8.59118965 L111.615914,7.05996415 L107.723124,7.05996415 Z" id="Fill-26"></path>
            </g>
        </g>
    </g>
</svg>