<svg xmlns="http://www.w3.org/2000/svg" viewBox="0 0 186 26"><g fill="none" fill-rule="evenodd"><path fill="#3B3B3A" d="M64.176 23.566c-.092.082-.29.123-.596.123h-3.243c-.245 0-.424-.046-.535-.14-.112-.09-.17-.26-.17-.507V2.79c0-.247.058-.415.17-.508.11-.092.29-.138.535-.138h3.243c.305 0 .504.04.596.123.092.082.138.256.138.523v20.254c0 .267-.046.443-.138.523m9.74-13.267v12.743c0 .268-.045.442-.137.523-.093.083-.28.123-.567.123H70c-.243 0-.422-.047-.533-.14-.112-.09-.168-.26-.168-.507V4.266c0-.8.14-1.36.426-1.677.286-.32.806-.478 1.56-.478h1.286c.305 0 .565.015.78.047.214.03.4.096.565.2.163.1.316.244.458.43.144.185.307.42.49.707l5.2 7.972 2.63 4.155h.153V2.758c0-.246.046-.415.137-.508.092-.09.28-.138.566-.138h3.214c.466 0 .702.215.702.646v18.808c0 .657-.132 1.175-.398 1.554-.264.38-.793.57-1.59.57h-1.284c-.306 0-.566-.016-.78-.047a1.42 1.42 0 0 1-.566-.2 1.942 1.942 0 0 1-.46-.414 7.468 7.468 0 0 1-.488-.695l-4.893-7.448L74.07 10.3h-.154m22.666 13.283c-.08.072-.275.106-.58.106h-3.243c-.246 0-.425-.047-.536-.14-.113-.09-.17-.26-.17-.507V7.807c0-.74.097-1.447.292-2.125.193-.677.51-1.282.948-1.816.438-.533 1.014-.958 1.728-1.277.714-.32 1.6-.478 2.662-.478h7.834c.264 0 .433.05.505.154.07.102.106.298.106.585V5.47c0 .266-.046.445-.138.538-.092.092-.25.138-.474.138h-6.825c-.796 0-1.326.18-1.592.54-.263.358-.396.814-.396 1.37v2.83h7.59c.245 0 .403.047.473.14.072.09.11.29.11.6v2.4c0 .247-.043.426-.125.54-.08.112-.235.17-.458.17h-7.59v8.31c0 .287-.04.466-.122.54m17.392-.018c-.09.082-.29.123-.596.123h-3.242c-.245 0-.424-.046-.535-.14-.112-.09-.17-.26-.17-.507V2.79c0-.247.058-.415.17-.508.112-.092.29-.138.536-.138h3.242c.307 0 .505.04.596.123.093.082.138.256.138.523v20.254c0 .267-.045.443-.138.523m9.743-13.267v12.743c0 .268-.047.442-.138.523-.093.083-.28.123-.568.123H119.8c-.245 0-.423-.047-.535-.14-.113-.09-.168-.26-.168-.507V4.266c0-.8.142-1.36.427-1.677.286-.32.806-.478 1.56-.478h1.286c.305 0 .566.015.78.047.213.03.402.096.566.2.162.1.316.244.458.43.143.185.306.42.49.707l5.2 7.972 2.63 4.155h.152V2.758c0-.246.046-.415.138-.508.09-.09.28-.138.566-.138h3.212c.467 0 .703.215.703.646v18.808c0 .657-.133 1.175-.398 1.554-.265.38-.794.57-1.59.57h-1.284c-.307 0-.566-.016-.782-.047a1.422 1.422 0 0 1-.564-.2 1.946 1.946 0 0 1-.46-.414 7.383 7.383 0 0 1-.487-.695l-4.895-7.448-2.936-4.587h-.154m35.48 10.405c0 .718-.157 1.332-.473 1.846-.316.514-.902.883-1.758 1.11-.408.1-.857.18-1.347.23-.49.05-.978.087-1.47.108-.488.02-.946.035-1.374.046-.43.01-.776.015-1.04.015-1.754 0-3.257-.15-4.51-.447-1.255-.298-2.28-.805-3.076-1.523-.794-.72-1.376-1.672-1.743-2.864-.367-1.19-.55-2.688-.55-4.493l-.03-11.945c0-.245.06-.414.182-.507.123-.09.296-.137.52-.137h3.274c.307 0 .506.04.596.123.093.082.14.257.14.522V15.01c0 .84.07 1.574.212 2.2.144.627.4 1.144.765 1.555.367.41.86.712 1.484.908.62.194 1.42.292 2.4.292.143 0 .337-.005.58-.015l.812-.03c.295-.01.6-.03.917-.062.315-.032.607-.078.872-.14V2.788c0-.244.054-.413.167-.506.112-.092.29-.138.535-.138h3.242c.306 0 .495.04.566.123.07.082.107.257.107.522v17.916m22.208-9.42h-.184l-1.255 2.86-2.54 5.665c-.223.535-.452.894-.686 1.078-.236.185-.587.277-1.055.277h-1.683c-.51 0-.864-.092-1.056-.277-.194-.184-.414-.543-.658-1.077l-1.897-4-1.894-4.156h-.184v11.42c0 .288-.05.462-.153.524-.103.06-.287.09-.55.09h-3.12c-.225 0-.398-.03-.52-.09-.123-.062-.184-.236-.184-.524V4.266c0-.78.147-1.333.443-1.662.296-.327.8-.492 1.516-.492h1.777c.57 0 .994.107 1.27.323.275.215.536.59.782 1.124l3.34 7.51 1.896 4.37h.124l2.083-4.802 3.124-7.018c.246-.554.518-.944.813-1.17.295-.225.77-.338 1.424-.338h1.5c.655 0 1.145.14 1.47.415.328.277.49.806.49 1.585v18.962c0 .288-.052.462-.152.524-.104.06-.288.09-.555.09h-3.05c-.224 0-.394-.03-.507-.09-.112-.062-.168-.236-.168-.524v-11.79"/><path fill="#D8262C" d="M12.866 20.197c3.937 0 7.1-3.61 9.635-6.72-2.882-4.036-5.343-7.644-9.985-7.644-3.798 0-6.537 2.972-6.537 7.43 0 3.75 2.883 6.934 6.75 6.934h.14zm38.394-7.36C51.26 21.118 45.28 26 39.026 26c-4.01 0-8.438-1.557-13.36-8.28C21.868 22.463 18 26 12.022 26 5.765 26 0 20.905 0 13.192 0 5.478 5.555.172 12.727.172c5.624 0 9.203 3.115 12.93 8.067 2.952-3.326 7.04-8.137 13.79-8.07C45.985.24 51.26 5.124 51.26 12.766v.07zM38.372 5.904c-3.937 0-7.1 3.61-9.635 6.72 2.883 4.037 5.344 7.645 9.986 7.645 3.798 0 6.537-2.972 6.537-7.43 0-3.75-2.883-6.935-6.748-6.935h-.14z"/></g></svg>
