<svg xmlns="http://www.w3.org/2000/svg" width="186" height="26" viewBox="0 0 186 26">
    <g fill="none" fill-rule="evenodd">
        <path fill="#3B3B3A" d="M64.176 23.566c-.092.082-.29.123-.596.123h-3.243c-.245 0-.424-.045-.535-.138-.112-.092-.169-.261-.169-.508V2.79c0-.247.057-.415.17-.508.11-.092.29-.138.534-.138h3.243c.305 0 .504.041.596.123.092.082.138.256.138.523v20.254c0 .267-.046.443-.138.523M73.917 10.3v12.743c0 .268-.046.442-.138.523-.092.083-.28.123-.566.123h-3.212c-.244 0-.423-.046-.534-.138-.112-.092-.168-.261-.168-.508V4.266c0-.8.142-1.359.427-1.677.286-.318.806-.477 1.56-.477h1.286c.305 0 .565.015.78.047.214.03.401.097.565.2.163.102.316.245.458.43.144.186.307.421.49.708l5.2 7.972 2.63 4.156h.153V2.758c0-.246.046-.415.137-.508.092-.091.28-.138.566-.138h3.213c.466 0 .702.215.702.646v18.808c0 .657-.132 1.175-.398 1.554-.264.38-.793.569-1.59.569h-1.284c-.306 0-.566-.015-.78-.046a1.42 1.42 0 0 1-.566-.199 1.942 1.942 0 0 1-.459-.415 7.468 7.468 0 0 1-.489-.694l-4.893-7.448L74.07 10.3h-.154M96.582 23.583c-.08.072-.275.106-.581.106h-3.242c-.245 0-.424-.046-.535-.138-.113-.092-.169-.261-.169-.508V7.807c0-.74.096-1.447.291-2.125.193-.677.51-1.282.948-1.816.438-.533 1.014-.958 1.728-1.277.714-.318 1.601-.477 2.662-.477h7.834c.264 0 .433.051.505.154.071.102.106.298.106.585v2.617c0 .266-.045.445-.137.538-.092.092-.251.138-.474.138h-6.825c-.796 0-1.326.18-1.592.54-.264.358-.397.814-.397 1.369v2.831h7.59c.245 0 .403.047.473.139.072.092.109.292.109.6v2.401c0 .247-.042.426-.124.539-.081.113-.235.17-.458.17h-7.59v8.31c0 .288-.04.467-.122.54M113.974 23.566c-.09.082-.289.123-.596.123h-3.242c-.245 0-.424-.045-.535-.138-.113-.092-.17-.261-.17-.508V2.79c0-.247.057-.415.17-.508.111-.092.29-.138.535-.138h3.242c.307 0 .505.041.596.123.093.082.138.256.138.523v20.254c0 .267-.045.443-.138.523M123.717 10.3v12.743c0 .268-.047.442-.138.523-.092.083-.28.123-.567.123H119.8c-.245 0-.423-.046-.535-.138-.113-.092-.168-.261-.168-.508V4.266c0-.8.142-1.359.427-1.677.286-.318.806-.477 1.561-.477h1.285c.305 0 .566.015.78.047.213.03.402.097.566.2.162.102.316.245.458.43.143.186.306.421.49.708l5.2 7.972 2.63 4.156h.152V2.758c0-.246.046-.415.138-.508.09-.091.28-.138.566-.138h3.212c.467 0 .703.215.703.646v18.808c0 .657-.133 1.175-.398 1.554-.265.38-.794.569-1.59.569h-1.284c-.307 0-.566-.015-.782-.046a1.422 1.422 0 0 1-.565-.199 1.946 1.946 0 0 1-.459-.415 7.383 7.383 0 0 1-.488-.694l-4.894-7.448-2.936-4.587h-.153M159.197 20.705c0 .718-.158 1.332-.474 1.846-.316.513-.902.882-1.758 1.108-.408.102-.857.18-1.347.231-.489.051-.978.087-1.469.108-.489.02-.947.035-1.375.046-.429.01-.776.015-1.04.015-1.754 0-3.257-.148-4.51-.446-1.255-.298-2.28-.805-3.076-1.523-.794-.72-1.376-1.672-1.743-2.864-.367-1.19-.55-2.688-.55-4.493l-.03-11.945c0-.245.06-.414.182-.507.123-.092.296-.138.52-.138h3.274c.306 0 .505.04.595.123.093.082.14.257.14.522V15.01c0 .84.07 1.574.212 2.2.144.627.4 1.144.765 1.555.367.41.86.712 1.484.908.62.194 1.421.292 2.4.292.143 0 .337-.005.58-.015.247-.011.517-.02.812-.031.296-.01.601-.03.918-.061.315-.032.607-.078.872-.14V2.789c0-.245.055-.414.168-.507.112-.092.29-.138.535-.138h3.242c.306 0 .495.04.566.123.071.082.107.257.107.522v17.917M181.405 11.285h-.184l-1.256 2.862-2.54 5.664c-.223.534-.452.893-.686 1.077-.235.185-.586.277-1.054.277h-1.683c-.511 0-.864-.092-1.056-.277-.194-.184-.414-.543-.658-1.077l-1.897-4.001-1.895-4.156h-.184v11.42c0 .288-.051.462-.153.524-.102.061-.286.091-.55.091h-3.12c-.224 0-.397-.03-.52-.09-.122-.063-.183-.237-.183-.525V4.266c0-.779.147-1.333.443-1.662.297-.327.802-.492 1.517-.492h1.777c.57 0 .994.107 1.27.323.275.215.536.59.782 1.124l3.339 7.51 1.897 4.371h.123l2.083-4.802 3.124-7.018c.245-.554.517-.944.812-1.17.295-.225.77-.338 1.424-.338h1.5c.655 0 1.145.139 1.47.415.328.277.491.806.491 1.585v18.962c0 .288-.053.462-.153.524-.104.061-.288.091-.555.091h-3.05c-.224 0-.394-.03-.507-.09-.112-.063-.168-.237-.168-.525V11.285"/>
        <path fill="#D8262C" d="M12.866 20.197c3.937 0 7.101-3.61 9.635-6.72-2.883-4.036-5.344-7.644-9.986-7.644-3.798 0-6.537 2.972-6.537 7.43 0 3.749 2.883 6.934 6.749 6.934h.14zm38.394-7.359C51.26 21.118 45.281 26 39.026 26c-4.01 0-8.438-1.557-13.361-8.28C21.869 22.463 18 26 12.023 26 5.765 26 0 20.905 0 13.192 0 5.478 5.555.172 12.727.172c5.624 0 9.203 3.115 12.929 8.067C28.609 4.914 32.696.103 39.447.17c6.538.07 11.813 4.954 11.813 12.596v.071zM38.372 5.903c-3.937 0-7.101 3.61-9.635 6.72 2.883 4.037 5.344 7.645 9.986 7.645 3.798 0 6.537-2.972 6.537-7.43 0-3.75-2.883-6.935-6.748-6.935h-.14z"/>
    </g>
</svg>
